# This file uses centimeters as units for non-parametric coordinates.

v -0.866024 0.500000 -0.167711
v -0.866025 -0.500000 -0.167711
v 0.000001 -1.000000 -0.167711
v 0.866025 -0.500000 -0.167711
v 0.866025 0.500000 -0.167711
v 0.000001 1.000000 -0.167711
v -0.866024 0.500000 0.167711
v -0.866025 -0.500000 0.167711
v 0.000001 -1.000000 0.167711
v 0.866025 -0.500000 0.167711
v 0.866025 0.500000 0.167711
v 0.000001 1.000000 0.167711
v 0.000001 0.000000 -0.167711
v 0.000001 0.000000 0.167711
vt 0.066987 0.250000
vt 0.066988 0.750000
vt 0.500000 0.500000
vt 0.500000 0.000000
vt 0.933013 0.250000
vt 0.933013 0.750000
vt 0.500000 1.000000
vt 0.911190 0.300854
vt 0.913486 0.300854
vt 0.913486 0.321568
vt 0.911190 0.321568
vt 0.915782 0.300854
vt 0.915782 0.321568
vt 0.918078 0.300854
vt 0.918078 0.321568
vt 0.920373 0.300854
vt 0.920373 0.321568
vt 0.922669 0.300854
vt 0.922669 0.321568
vt 0.924965 0.300854
vt 0.924965 0.321568
vt 0.066987 0.250000
vt 0.500000 0.500000
vt 0.066988 0.750000
vt 0.500000 0.000000
vt 0.933013 0.250000
vt 0.933013 0.750000
vt 0.500000 1.000000
vn 0.000000 0.000000 -1.000000
vn 0.000000 0.000000 -1.000000
vn 0.000000 0.000000 -1.000000
vn 0.000000 0.000000 -1.000000
vn 0.000000 0.000000 -1.000000
vn 0.000000 0.000000 -1.000000
vn 0.000000 0.000000 -1.000000
vn 0.000000 0.000000 -1.000000
vn 0.000000 0.000000 -1.000000
vn 0.000000 0.000000 -1.000000
vn 0.000000 0.000000 -1.000000
vn 0.000000 0.000000 -1.000000
vn 0.000000 0.000000 -1.000000
vn 0.000000 0.000000 -1.000000
vn 0.000000 0.000000 -1.000000
vn 0.000000 0.000000 -1.000000
vn 0.000000 0.000000 -1.000000
vn 0.000000 0.000000 -1.000000
vn -1.000000 0.000000 0.000000
vn -1.000000 0.000000 0.000000
vn -1.000000 0.000000 0.000000
vn -1.000000 0.000000 0.000000
vn -0.500000 -0.866025 0.000000
vn -0.500000 -0.866025 0.000000
vn -0.500000 -0.866025 0.000000
vn -0.500000 -0.866025 0.000000
vn 0.500000 -0.866026 0.000000
vn 0.500000 -0.866026 0.000000
vn 0.500000 -0.866026 0.000000
vn 0.500000 -0.866026 0.000000
vn 1.000000 0.000000 0.000000
vn 1.000000 0.000000 0.000000
vn 1.000000 0.000000 0.000000
vn 1.000000 0.000000 0.000000
vn 0.500000 0.866025 0.000000
vn 0.500000 0.866025 0.000000
vn 0.500000 0.866025 0.000000
vn 0.500000 0.866025 0.000000
vn -0.500000 0.866026 0.000000
vn -0.500000 0.866026 0.000000
vn -0.500000 0.866026 0.000000
vn -0.500000 0.866026 0.000000
vn 0.000000 0.000000 1.000000
vn 0.000000 0.000000 1.000000
vn 0.000000 0.000000 1.000000
vn 0.000000 0.000000 1.000000
vn 0.000000 0.000000 1.000000
vn 0.000000 0.000000 1.000000
vn 0.000000 0.000000 1.000000
vn 0.000000 0.000000 1.000000
vn 0.000000 0.000000 1.000000
vn 0.000000 0.000000 1.000000
vn 0.000000 0.000000 1.000000
vn 0.000000 0.000000 1.000000
vn 0.000000 0.000000 1.000000
vn 0.000000 0.000000 1.000000
vn 0.000000 0.000000 1.000000
vn 0.000000 0.000000 1.000000
vn 0.000000 0.000000 1.000000
vn 0.000000 0.000000 1.000000
f 2/1/1 1/2/2 13/3/3
f 3/4/4 2/1/5 13/3/6
f 4/5/7 3/4/8 13/3/9
f 5/6/10 4/5/11 13/3/12
f 6/7/13 5/6/14 13/3/15
f 1/2/16 6/7/17 13/3/18
f 1/8/19 2/9/20 8/10/21 7/11/22
f 2/9/23 3/12/24 9/13/25 8/10/26
f 3/12/27 4/14/28 10/15/29 9/13/30
f 4/14/31 5/16/32 11/17/33 10/15/34
f 5/16/35 6/18/36 12/19/37 11/17/38
f 6/18/39 1/20/40 7/21/41 12/19/42
f 8/22/43 14/23/44 7/24/45
f 9/25/46 14/23/47 8/22/48
f 10/26/49 14/23/50 9/25/51
f 11/27/52 14/23/53 10/26/54
f 12/28/55 14/23/56 11/27/57
f 7/24/58 14/23/59 12/28/60
